<?xml version="1.0" encoding="UTF-8"?><svg id="Capa_2" xmlns="http://www.w3.org/2000/svg" viewBox="0 0 1012.59 375.34"><defs><style>.cls-1,.cls-2{stroke-width:0px;}.cls-2{fill:#fff;}</style></defs><g id="Positivos"><g id="isologo"><path class="cls-2" d="m449.64,260.25c-14,0-25.41-4.57-34.23-13.72-8.82-9.14-13.23-21.38-13.23-36.7s4.22-26.75,12.65-36.3c8.43-9.55,20.13-14.33,35.1-14.33,13.85,0,25.14,4.5,33.86,13.5,8.72,9,13.09,21.02,13.09,36.05s-4.4,28.03-13.19,37.42c-8.8,9.38-20.15,14.08-34.04,14.08Zm-.15-22.26c5.15,0,8.86-2.21,11.12-6.64,2.26-4.43,3.39-12.53,3.39-24.31,0-17.04-4.64-25.56-13.92-25.56-10.01,0-15.02,9.72-15.02,29.16,0,18.24,4.81,27.36,14.43,27.36Z"/><path class="cls-2" d="m589.29,159.21v65.9c0,12.49-3.71,21.47-11.12,26.94-7.41,5.47-17.07,8.2-28.98,8.2-12.54,0-22.61-2.62-30.22-7.87-7.61-5.25-11.41-13.8-11.41-25.66v-67.51h31.06v63.93c0,4.76,1,8.24,3.02,10.43,2.01,2.19,5.22,3.28,9.63,3.28,3.68,0,6.7-.79,9.05-2.37,2.35-1.58,3.76-3.37,4.22-5.36.46-1.99.69-5.88.69-11.66v-58.25h24.06Z"/><path class="cls-2" d="m645.32,184.76v74.56h-28.94v-74.56h-20.63c0-8.52,0-17.03,0-25.55h70.2c0,8.52,0,17.03,0,25.55h-20.63Z"/><path class="cls-2" d="m743.19,234.77v24.57h-69.77v-100.12h30.54v75.55h39.22Z"/><path class="cls-2" d="m783.19,159.21v100.12h-30.54v-100.12h30.54Z"/><path class="cls-2" d="m874.21,235.43v23.91h-74.87v-100.12h74.87c-.28,8.52-.56,17.03-.85,25.55h-44.06v12.08h36.3v22.22h-36.3v16.36h44.91Z"/><path class="cls-2" d="m973.69,259.34h-33.86l-14.53-38.29h-9.63v38.29h-30.54v-100.12h51.98c11.47,0,20.38,2.7,26.72,8.11,6.34,5.4,9.51,12.53,9.51,21.38,0,5.77-1.17,10.87-3.5,15.29-2.33,4.43-7.05,8.33-14.14,11.7l18.01,43.64Zm-58.03-59.71h13.05c3.84,0,6.93-.81,9.26-2.42s3.5-3.99,3.5-7.11c0-6.41-3.91-9.61-11.74-9.61h-14.07v19.14Z"/><path class="cls-2" d="m1012.59,232.12v26.61h-27.7v-26.61h27.7Z"/><circle class="cls-2" cx="187.67" cy="187.67" r="187.67"/><path class="cls-1" d="m59.81,259.34V116h72.77c15.12,0,26.15,3.82,33.08,11.45,6.93,7.63,10.4,16.35,10.4,26.15,0,7.14-2.01,13.6-6.04,19.38-4.03,5.78-10.03,9.75-18.01,11.92,18.55,4.48,27.83,15.61,27.83,33.39,0,10.64-3.27,20.15-9.82,28.51-6.55,8.37-20.53,12.55-41.95,12.55H59.81Z"/><path class="cls-1" d="m198,259.34V116h55.44c24.08,0,42.11,7.14,54.08,21.42,11.97,14.28,17.95,30.8,17.95,49.56,0,21.42-6.42,38.84-19.27,52.24-12.85,13.41-29.53,20.11-50.04,20.11h-58.17Z"/></g></g></svg>